<svg width="800" height="600" xmlns="http://www.w3.org/2000/svg">
 <!-- Created with Method Draw - http://github.com/duopixel/Method-Draw/ -->
 <g>
  <title>background</title>
  <rect fill="#fff" id="canvas_background" height="602" width="802" y="-1" x="-1"/>
  <g display="none" overflow="visible" y="0" x="0" height="100%" width="100%" id="canvasGrid">
   <rect fill="url(#gridpattern)" stroke-width="0" y="0" x="0" height="100%" width="100%"/>
  </g>
 </g>
 <g>
  <title>Layer 1</title>
  <path d="m370,85c0,4 0,15 0,30c0,7 0,12 0,15c0,2 -1,3 -1,4c0,1 0,3 0,5l0,1l0,1l-1,0" id="svg_5" stroke-width="1.5" stroke="#000" fill="none"/>
  <path d="m249,150c1,0 5,0 23,0c12,0 55,0 84,0c12,0 29,0 49,0c24,0 42,0 53,0c1,0 2,0 3,0c1,0 2,0 3,0c1,0 3,0 5,0c1,0 3,0 12,0l1,0" id="svg_6" stroke-width="1.5" stroke="#000" fill="none"/>
  <path d="m383,192c0,-1 0,-2 -1,-2c-2,0 -4,0 -11,0c-9,0 -16.94672,0.49873 -24,1c-2.99246,0.21266 -11.19577,3.64886 -15,6c-8.5065,5.25731 -13.22427,9.83661 -19,18c-2.08246,2.94336 -11.38055,11.76305 -15,18c-2.24469,3.868 -2,5 -2,7c0,7 0,14 0,21c0,6 -0.24469,12.13202 2,16c1.80972,3.11847 3.11365,6.89246 5,9c4.27039,4.77115 3.25064,7.82724 12,15c2.78833,2.28589 4.76993,4.54861 9,6c4.82303,1.65482 12.99731,4.03552 26,5c13.99722,1.03824 23,1 33,1c5,0 12.57111,-2.67947 17,-5c5.60217,-2.93527 11.67285,-4.28027 16,-9c2.43658,-2.65765 7.43283,-8.65106 13,-16c4.35437,-5.74799 6.49829,-9.93796 7,-16c0.41241,-4.98297 1,-12 1,-16c0,-3 0.36655,-6.02248 0,-9c-0.50378,-4.09221 -1.67862,-9.12703 -3,-12c-2.43649,-5.2975 -4.42236,-10.53282 -10,-16c-4.57272,-4.48219 -8,-7 -12,-10c-4,-3 -5.5206,-4.63893 -8,-6c-8.08191,-4.43652 -12,-4 -14,-4c-1,0 -2,0 -4,-1l-1,0l-1,0l-1,0" id="svg_7" stroke-width="1.5" stroke="#000" fill="none"/>
  <path d="m378,344c0,1 0,4 0,12c0,13 0,23 0,31c0,8 0,11 0,13l0,1l0,2l0,3" id="svg_8" stroke-width="1.5" stroke="#000" fill="none"/>
  <path d="m237,418c12,0 47,0 93,0c24,0 27.96881,0.49957 40,1c11.98962,0.49872 41.19479,-3.17676 67,0c12.27664,1.51132 22,3 28,3c5,0 14,0 21,0c2,0 5,0 7,0c4,0 7,0 16,0l8,0l4,0l1,0" id="svg_9" stroke-width="1.5" stroke="#000" fill="none"/>
  <path d="m352,68c-1,0 -1.29291,-0.29289 -2,-1c-1.41422,-1.41422 -6,0 -9,0c-5,0 -8,0 -11,0c-4,0 -8,0 -17,0c-9,0 -15,0 -21,0c-2,0 -4.18726,0.39173 -11,2c-4.35251,1.02749 -5.97223,4.04229 -9,6c-5.108,3.30276 -16.18924,5.37684 -27,9c-5.10603,1.71126 -6,3 -7,4c-4,4 -7.81824,4.60694 -12,8c-2.79984,2.27177 -6.1731,6.85273 -7,8c-3.92236,5.44198 -4.61064,9.15928 -6,12c-1.58411,3.23892 -2.96855,7.41207 -5,11c-2.09035,3.69194 -5.53987,6.25305 -9,12c-4.43713,7.36966 -11.23174,16.92767 -13,23c-2.30554,7.91736 -4.89528,17.50659 -9,25c-2.40211,4.38519 -4.99023,8.79025 -6,16c-0.1387,0.99034 -2.45877,5.47125 -4,12c-1.14876,4.86624 -0.82294,10.65489 -3,17c-1.65482,4.82303 -3.08075,11.98453 -4,17c-1.0966,5.98309 -2.41479,10.90759 -4,19c-1.3593,6.93918 -0.0291,12.06766 -1,19c-1.00977,7.20975 -3,12 -3,17c0,3 0,8 0,20c0,8 0.43268,15.05414 1,18c2.03674,10.57599 5.36076,11.51135 8,21c2.16048,7.7674 4.88133,17.02521 6,22c0.90456,4.02264 4.45877,7.47125 6,14c0.4595,1.9465 1.41156,5.40402 5,10c2.61098,3.34409 4.88293,7.07437 10,15c3.91136,6.05817 7.4588,8.69345 8,10c0.38269,0.92389 1.8118,3.19556 7,8c6.76459,6.26422 14.65942,11.56531 21,15c6.6964,3.62744 13.15512,5.56952 22,9c9.1824,3.56137 15.67618,8.93103 26,12c4.88763,1.45294 7.71201,2.98163 13,4c3.92783,0.75644 9.0769,0.73145 13,2c5.12396,1.65686 15.00244,2.84396 20,3c16.02341,0.50024 21,1 33,1c7,0 14,1 21,1c11,0 23,0 34,0c7,0 14.01028,0.45316 24,0c11.03403,-0.50052 33.96091,-3.29602 48,-5c9.97665,-1.21091 13.22836,-0.85196 16,-2c3.91968,-1.6236 5.93298,-5.23318 16,-8c11.92706,-3.27805 20.25659,-7.41885 25,-9c1.89734,-0.63245 5,-1 6,-2c3,-3 5.4411,-5.66257 13,-16c2.12817,-2.91046 4.69592,-9.15939 9,-17c2.80591,-5.11145 4.48627,-9.82376 5,-12c0.22974,-0.97324 0.95514,-4.54916 2,-8c2.0285,-6.69965 0.49872,-10.94672 1,-18c0.638,-8.97736 -1,-17 -1,-21c0,-14 1.31439,-17.09924 -1,-39c-0.63922,-6.04907 -2.87665,-17.01309 -4,-27c-0.90118,-8.01172 -2.71472,-18.09006 -6,-28c-3.68317,-11.11011 -6.54834,-20.12668 -9,-28c-2.54022,-8.15765 -4.15918,-18.93779 -8,-29c-4.17401,-10.93515 -7,-20 -11,-28c-1,-2 -4.77417,-12.06334 -6,-16c-2.54022,-8.15765 -5.82465,-13.06134 -8,-19c-1.85229,-5.05659 -5.22128,-10.31856 -8,-16c-3.16821,-6.47784 -7.4733,-12.29366 -11,-18c-5.25732,-8.50651 -9.73325,-13.23273 -15,-19c-5.72195,-6.26572 -7.27744,-8.88596 -12,-12c-4.49576,-2.96449 -9.2222,-4.48879 -12,-6c-5.62463,-3.05996 -11.38687,-7.91761 -14,-9c-0.92389,-0.38268 -3,-2 -4,-2c-1,0 -2.80243,-0.43288 -9,-3c-8.76468,-3.63046 -14,-3 -15,-3c-5,0 -5.8038,-0.75549 -16,-3c-6.90573,-1.52018 -12.90778,-1.49622 -17,-2c-0.99249,-0.12218 -4,0 -7,0c-3,0 -12.01007,0.28355 -16,0c-7.05328,-0.50126 -11,-1 -12,-1l-1,0l-1,0" id="svg_10" stroke-width="1.5" stroke="#000" fill="none"/>
  <path d="m279,179c-1,0 -1.49347,2.87856 -2,6c-0.64072,3.94835 -0.70709,6.29289 0,7c0.70709,0.70711 1,-1 1,-2c0,-1 0,-3 0,-5c0,-1 -0.61731,-3.07613 -1,-4c-0.5412,-1.30656 -2,-1 -2,0c0,4 0.83771,5.83772 4,9c4.74341,4.74342 7.48627,3.17625 8,1c0.22977,-0.97325 1.91342,-5.3806 0,-10c-1.6236,-3.91969 -5,-4 -6,-4c-3,0 -2.18735,4.2068 0,6c2.78833,2.28587 7,2 8,2c1,0 1.4588,-0.69344 2,-2c0.38269,-0.92387 -3,-1 -10,-1c-3,0 -4.41422,1.58578 -3,3c1.41422,1.41422 1.83981,1.01291 2,2c0.50653,3.12144 2,3 3,3l0,-1l1,-1" id="svg_11" stroke-width="1.5" stroke="#000" fill="none"/>
  <path d="m438,170c-1,0 -3.38269,0.07613 -3,1c1.6236,3.91969 5.29291,3.70711 6,3c0.70709,-0.70711 0.38269,-6.07613 0,-7c-1.0824,-2.61313 -3,-3 -6,-3c-1,0 -4.9176,2.38687 -6,5c-0.38269,0.92387 -1,5 -1,6c0,4 0.26205,7.15814 6,10c3.69476,1.82993 5.07611,1.38269 6,1c1.30655,-0.5412 1,-3 1,-4c0,-2 0.703,-4.61383 -2,-7c-1.67633,-1.47984 -4,-1 -5,-1c-2,0 -4.14429,-0.06586 -5,2c-1.21014,2.92157 -1,5 -1,6c0,2 3.90778,3.49623 8,4c2.97751,0.36655 4.4588,0.30656 5,-1c0.76538,-1.84776 0,-6 0,-8c0,-2 0,-1 0,0c0,3 0,4 0,1c0,-3 0.78821,-7.38458 0,-8c-3.24985,-2.53741 -4,4 -4,5l0,2l-1,2" id="svg_12" stroke-width="1.5" stroke="#000" fill="none"/>
  <path d="m324,105c5,0 20,0 30,0c7,0 16,0 31,0l33,0l22,0l2,0" id="svg_13" stroke-width="1.5" stroke="#000" fill="none"/>
  <path d="m302,75c3,-1 4.87857,-2.49346 8,-3c3.94836,-0.64073 20,0 49,0c29,0 39,0 40,0c1,0 2,0 5,-1l2,0l1,0l1,0" id="svg_14" stroke-width="1.5" stroke="#000" fill="none"/>
  <path d="m449,68c-1,-1 -1,-3 -1,-5c0,-2 3.19028,-4.88152 5,-8c2.24469,-3.868 4.69345,-5.45881 6,-6c0.92389,-0.38268 1.87857,-1.49346 5,-2c0.98709,-0.16018 3.22836,0.14805 6,-1c1.30655,-0.54119 3,-1 5,-1c2,0 5,0 8,0c5,0 9.12704,-0.32138 12,1c5.29749,2.4365 10.64749,5.97252 15,7c1.9465,0.45951 5.18604,1.69255 7,3c2.29456,1.65381 3,4 4,6c1,2 2,6 2,9c0,6 0,11 0,15c0,2 0,5 -1,6c-1,1 -1.77637,1.40894 -7,4c-4.82428,2.39297 -9,2 -10,2c-1,0 -6,0 -13,2l-4,1" id="svg_15" stroke-width="1.5" stroke="#000" fill="none"/>
  <path d="m237,75c0,-1 -1.89288,-3.1377 -7,-7c-6.86119,-5.18884 -9.69344,-7.45881 -11,-8c-0.92387,-0.38268 -3.15224,-0.23463 -5,-1c-1.30656,-0.54119 -3.29289,-0.29289 -4,-1c-0.70711,-0.70711 -1,-1 -3,-1c-5,0 -11,0 -17,0c-6,0 -7,1 -8,1c-1,0 -1.69344,0.45881 -3,1c-0.92387,0.38268 -2.02675,0.77025 -3,1c-2.17625,0.51374 -3.08582,2.42043 -5,3c-3.45085,1.04483 -6.82375,5.48626 -9,6c-0.97325,0.22975 -0.69255,2.186 -2,4c-1.65381,2.29454 -4,3 -4,7c0,3 -3.15988,8.56761 2,15c1.39917,1.74422 1.85274,2.1731 3,3c5.44197,3.92236 8.41208,3.96855 12,6c1.23065,0.69678 1.85274,1.1731 3,2c1.814,1.30745 5.69344,2.4588 7,3c0.92387,0.38268 3,0 4,0c2,0 3,0 4,0c1,0 3,0 5,0l1,0" id="svg_16" stroke-width="1.5" stroke="#000" fill="none"/>
  <path d="m546,356c2,0 5.29895,-2.772 18,0c25.79358,5.62946 58,28 94,50l25,16l11,7l2,1" id="svg_17" stroke-width="1.5" stroke="#000" fill="none"/>
  <path d="m557,389c4,0 12,4 18,8c6,4 12.21509,7.64362 24,15c9.17572,5.72766 17.37201,9.3851 21,12c2.29456,1.65381 4.61383,3.297 7,6c1.47986,1.67633 4.15222,4.23462 6,5c1.30658,0.5412 2.151,0.43463 4,3c0.58472,0.81125 1.85272,2.1731 3,3c1.81396,1.30746 2,2 4,3l1,0" id="svg_18" stroke-width="1.5" stroke="#000" fill="none"/>
  <path d="m535,411c4,1 9.7478,3.31067 22,13c11.7655,9.30444 20.58191,13.71243 27,17c7.60443,3.89523 13.41205,4.96854 17,7c4.92261,2.78714 4.19611,7.29544 10,10c4.62183,2.15372 5.61731,1.07611 6,2c0.5412,1.30655 2.07611,0.61731 3,1c1.30658,0.5412 6.80804,6.37476 15,9c0.95227,0.30518 0,0 0,-2l0,-2" id="svg_19" stroke-width="1.5" stroke="#000" fill="none"/>
  <path d="m216,301c-1,0 -3.43677,-2.21729 -19,2c-7.35068,1.99188 -27.53822,9.86584 -39,16c-9.53677,5.10391 -15.36569,10.95547 -25,13c-0.97821,0.20758 -3.01291,0.83981 -4,1c-3.12144,0.50653 -4.75711,2.98691 -11,4c-1.97417,0.32037 -3.90282,1.22421 -6,2c-3.867,1.43048 -14,4 -15,4l2,0" id="svg_20" stroke-width="1.5" stroke="#000" fill="none"/>
  <path d="m236,340c-4,0 -7.19766,-0.43671 -12,2c-8.41295,4.26877 -17.1432,13.31659 -35,24c-21.10751,12.62823 -38.09789,17.82443 -40,19c-4.25325,2.62866 -6.15224,3.23462 -8,4c-1.30656,0.5412 -3.07843,1.78986 -6,3c-2.06586,0.85571 -3.29095,1.17355 -10,4c-7.42983,3.1301 -12,5 -13,6l3,-1" id="svg_21" stroke-width="1.5" stroke="#000" fill="none"/>
  <path d="m250,371c-1,1 -3.26968,3.59058 -8,7c-14.95857,10.78152 -23.33179,22.61734 -28,27c-10.83813,10.1752 -25.132,20.75531 -29,23c-3.11848,1.80972 -5.07613,3.61731 -6,4c-1.30656,0.5412 -4.37535,3.94003 -10,7c-8.33345,4.53363 -11.69344,4.4588 -13,5c-1.84776,0.76538 -3,1 -5,1c-1,0 -2,1 -6,3l-9,5l-17,9l-6,4" id="svg_22" stroke-width="1.5" stroke="#000" fill="none"/>
  <path d="m282,174c-1,0 -3.0535,-0.4595 -5,0c-2.17624,0.51375 -2.38269,2.07613 -2,3c1.0824,2.61313 3.02676,2.77025 4,3c4.35251,1.02748 5,2 5,1c0,-1 0,-3 0,-6c0,-1 1.41422,-2.58578 0,-4c-1.41422,-1.41422 -8,-1 -11,-1c-2,0 -3,0 -3,1c0,1 -0.91901,5.10701 0,9c0.51373,2.17625 8.09686,5.60025 13,7c8.21576,2.34544 9.29291,3.70711 10,3c1.41422,-1.41422 -0.51929,-4.5582 -3,-8c-1.30746,-1.814 -2,-3 -3,-3c-2,0 -4.4588,0.69344 -5,2c-1.14804,2.77164 4,5 8,5c1,0 1,-1 1,-2c0,-1 -1.07611,-1.38269 -2,-1c-1.30655,0.5412 -2,2 -2,3l1,0l1,0l0,-1" id="svg_23" stroke-width="1.5" stroke="#000" fill="none"/>
 </g>
</svg>